<?xml version="1.0" standalone="no"?>
<!DOCTYPE svg PUBLIC "-//W3C//DTD SVG 20010904//EN"
 "http://www.w3.org/TR/2001/REC-SVG-20010904/DTD/svg10.dtd">
<svg version="1.0" xmlns="http://www.w3.org/2000/svg"
 width="400.000000pt" height="400.000000pt" viewBox="0 0 400.000000 400.000000"
 preserveAspectRatio="xMidYMid meet">

<g transform="translate(0.000000,400.000000) scale(0.100000,-0.100000)"
fill="#000000" stroke="none">
<path d="M940 2515 l0 -865 33 13 c17 8 156 62 307 122 151 59 356 140 455
179 l180 71 3 673 2 672 -490 0 -490 0 0 -865z"/>
<path d="M2080 2947 l0 -433 183 -71 c100 -39 310 -122 467 -183 157 -62 295
-116 308 -121 l22 -9 0 625 0 625 -490 0 -490 0 0 -433z"/>
<path d="M2080 1485 l0 -865 490 0 490 0 -2 672 -3 673 -225 88 c-287 112
-664 261 -712 282 l-38 15 0 -865z"/>
<path d="M1734 1797 c-100 -40 -320 -126 -488 -192 l-306 -120 0 -432 0 -433
490 0 490 0 0 625 c0 344 -1 625 -2 624 -2 0 -85 -33 -184 -72z"/>
</g>
</svg>
