<?xml version="1.0" standalone="no"?>
<!DOCTYPE svg PUBLIC "-//W3C//DTD SVG 20010904//EN"
 "http://www.w3.org/TR/2001/REC-SVG-20010904/DTD/svg10.dtd">
<svg version="1.0" xmlns="http://www.w3.org/2000/svg"
 width="3103.000000pt" height="2862.000000pt" viewBox="0 0 3103.000000 2862.000000"
 preserveAspectRatio="xMidYMid meet">

<g transform="translate(0.000000,2862.000000) scale(0.100000,-0.100000)"
fill="#000000" stroke="none">
<path d="M15300 23790 c-442 -61 -844 -288 -1123 -633 -99 -122 -141 -189
-289 -462 -69 -126 -365 -671 -658 -1210 -527 -971 -776 -1427 -1296 -2384
-148 -272 -271 -498 -272 -503 -2 -4 462 -7 1032 -6 791 2 1035 0 1032 -9 -3
-6 -602 -1649 -1332 -3650 -730 -2001 -1345 -3687 -1368 -3748 -39 -108 -40
-112 -41 -245 0 -117 3 -144 24 -203 65 -190 228 -338 418 -383 93 -22 236
-14 323 17 48 18 336 204 1115 723 578 384 1055 703 1060 709 12 13 125 76
-1140 -644 -583 -332 -1085 -612 -1115 -622 -78 -27 -194 -20 -273 16 -113 51
-211 174 -236 295 -15 71 -14 117 3 182 8 30 583 1223 1279 2650 695 1427
1508 3097 1807 3710 673 1383 683 1402 737 1472 86 112 234 206 383 244 102
26 262 16 366 -23 144 -54 271 -154 346 -274 19 -30 307 -614 640 -1299 334
-685 1174 -2410 1868 -3835 763 -1566 1268 -2614 1277 -2650 47 -182 -57 -391
-234 -472 -79 -36 -195 -43 -273 -16 -30 10 -548 299 -1150 642 -602 343
-1099 626 -1105 629 -49 25 149 -108 1060 -714 779 -519 1067 -705 1115 -723
88 -32 230 -39 324 -17 164 39 313 158 385 309 51 105 65 180 59 310 -4 80
-12 121 -36 187 -32 89 -2696 7394 -2706 7420 -6 13 112 15 1029 12 569 -1
1035 -1 1035 1 0 2 -118 222 -263 488 -145 266 -382 702 -527 969 -144 267
-498 917 -785 1445 -287 528 -570 1050 -630 1160 -187 346 -255 450 -399 602
-246 261 -560 436 -922 513 -112 24 -430 36 -544 20z"/>
<path d="M15255 11455 c-113 -18 -254 -58 -365 -102 -164 -66 -124 -41 -1420
-870 -1036 -662 -1417 -907 -1739 -1113 l-334 -215 2062 -3 c1135 -1 2988 -1
4118 0 l2056 3 -349 224 c-192 124 -797 511 -1344 861 -547 350 -1121 717
-1275 815 -397 255 -557 330 -815 386 -127 28 -461 35 -595 14z"/>
</g>
</svg>
