<?xml version="1.0" standalone="no"?>
<!DOCTYPE svg PUBLIC "-//W3C//DTD SVG 20010904//EN"
 "http://www.w3.org/TR/2001/REC-SVG-20010904/DTD/svg10.dtd">
<svg version="1.0" xmlns="http://www.w3.org/2000/svg"
 width="1863.000000pt" height="750.000000pt" viewBox="0 0 1863.000000 750.000000"
 preserveAspectRatio="xMidYMid meet">

<g transform="translate(0.000000,750.000000) scale(0.100000,-0.100000)"
fill="#000000" stroke="none">
<path d="M678 4890 c-50 -15 -93 -48 -117 -90 -19 -35 -23 -53 -19 -105 5 -76
38 -127 102 -156 39 -18 89 -19 1155 -19 l1115 0 44 21 c80 39 122 144 93 232
-15 45 -78 102 -128 116 -46 13 -2203 14 -2245 1z"/>
<path d="M3770 4891 c-30 -3 -65 -12 -76 -18 -36 -21 -83 -81 -94 -122 -7 -27
-10 -387 -8 -1145 l3 -1104 30 -44 c43 -61 104 -91 174 -84 69 6 122 41 150
98 20 43 21 56 21 506 l0 462 725 0 c718 0 725 0 782 -22 42 -15 75 -38 119
-82 96 -97 97 -99 103 -503 l6 -341 24 -34 c29 -39 54 -59 96 -75 98 -38 216
23 245 125 6 22 10 162 10 342 0 264 -3 317 -20 392 -23 105 -71 211 -133 295
l-47 63 31 22 c93 68 202 246 235 383 19 81 22 236 5 310 -64 271 -272 487
-538 556 -75 19 -113 20 -933 24 -470 2 -880 0 -910 -4z m1725 -382 c76 -14
126 -40 185 -95 155 -145 133 -408 -44 -528 -100 -68 -77 -66 -913 -66 l-753
0 0 350 0 350 733 0 c487 0 753 -4 792 -11z"/>
<path d="M15696 4888 c-22 -6 -55 -27 -76 -48 -71 -71 -75 -180 -10 -254 63
-71 -24 -66 1216 -66 l1118 0 44 21 c148 72 125 304 -35 348 -52 15 -2202 13
-2257 -1z"/>
<path d="M10445 4874 c-829 -147 -1286 -1058 -907 -1809 87 -174 258 -369 416
-475 317 -212 695 -272 1066 -170 104 29 300 127 395 198 466 348 637 961 418
1492 -165 400 -528 691 -952 764 -116 20 -325 20 -436 0z m437 -388 c336 -85
594 -362 653 -701 85 -488 -246 -949 -736 -1026 -100 -16 -274 -6 -369 21
-559 159 -821 808 -524 1301 122 203 324 353 550 408 120 30 303 28 426 -3z"/>
<path d="M12577 4869 c-20 -11 -49 -38 -65 -61 l-27 -42 -3 -1110 c-2 -770 0
-1122 8 -1148 21 -75 102 -137 178 -138 65 0 137 44 170 105 15 27 17 115 22
899 l5 869 230 -227 c127 -125 244 -234 262 -242 67 -29 168 -9 215 43 48 53
61 148 29 211 -29 55 -807 828 -853 847 -51 21 -125 18 -171 -6z"/>
<path d="M14725 4866 c-22 -13 -52 -44 -65 -68 l-25 -43 -5 -868 -5 -867 -225
226 c-124 124 -239 232 -257 240 -50 22 -129 18 -175 -8 -70 -40 -108 -132
-88 -210 10 -38 58 -90 428 -460 298 -299 426 -421 451 -429 86 -29 191 14
230 93 l21 44 0 1118 c0 1095 0 1118 -20 1156 -33 64 -81 94 -159 98 -56 2
-72 -1 -106 -22z"/>
<path d="M6593 4620 c35 -485 346 -910 797 -1088 71 -28 199 -63 283 -77 l37
-6 0 -452 c0 -280 4 -466 10 -489 21 -76 102 -138 180 -138 70 0 155 59 179
123 7 19 11 191 11 500 l0 472 86 23 c290 74 557 265 731 522 113 167 187 391
208 628 l6 72 -190 0 -189 0 -7 -67 c-39 -395 -299 -702 -675 -796 -118 -29
-311 -29 -425 2 -280 75 -499 269 -605 537 -32 79 -60 212 -60 280 l0 44 -191
0 -192 0 6 -90z"/>
<path d="M638 3800 c-61 -33 -92 -82 -96 -156 -4 -54 -1 -70 21 -106 15 -26
42 -53 69 -68 l43 -25 1103 -3 c754 -1 1116 1 1143 8 48 13 107 64 125 107 34
80 4 183 -67 230 l-43 28 -1130 2 c-1106 2 -1132 2 -1168 -17z"/>
<path d="M15669 3800 c-137 -72 -140 -261 -6 -333 l42 -22 1103 -3 c754 -1
1116 1 1143 8 162 44 186 276 37 349 l-44 21 -1120 0 c-1083 -1 -1120 -1
-1155 -20z"/>
<path d="M678 2740 c-50 -15 -93 -48 -117 -90 -19 -35 -23 -53 -19 -105 5 -74
36 -123 98 -155 38 -20 60 -20 1157 -20 1077 0 1120 1 1160 19 79 36 123 146
94 234 -15 45 -78 102 -128 116 -46 13 -2203 14 -2245 1z"/>
<path d="M15700 2738 c-82 -23 -133 -94 -134 -183 0 -61 23 -105 77 -149 l39
-31 1131 -3 1130 -2 44 21 c135 65 134 263 -1 337 -29 16 -113 17 -1141 19
-719 1 -1122 -2 -1145 -9z"/>
</g>
</svg>
