<?xml version="1.0" encoding="UTF-8"?>
<!-- Generator: Adobe Illustrator 15.1.0, SVG Export Plug-In . SVG Version: 6.00 Build 0)  -->
<!DOCTYPE svg PUBLIC "-//W3C//DTD SVG 1.1//EN" "http://www.w3.org/Graphics/SVG/1.1/DTD/svg11.dtd">
<svg version="1.1" id="圖層_1" xmlns="http://www.w3.org/2000/svg" xmlns:xlink="http://www.w3.org/1999/xlink" x="0px" y="0px" width="51.31px" height="51.31px" viewBox="0 0 51.31 51.31" enable-background="new 0 0 51.31 51.31" xml:space="preserve">
<g id="q1" transform="matrix(1,0,0,-1,0,100)">
	<g id="xfrm2" transform="translate(190.919,125.982)">
		<path id="path11" fill="#0B8F7A" d="M-141.323-42.332c3.818-9.723,1.105-21.189-6.65-28.044    c-6.68-6.053-16.618-8.279-25.479-5.307c-9.938,3.287-16.883,12.264-17.429,22.776c-0.531,9.936,4.674,18.909,13.388,23.632    c7.962,4.574,19.906,3.828,27.19-1.695C-146.322-33.684-143.138-37.932-141.323-42.332"/>
	</g>
</g>
<g id="q3" transform="matrix(1,0,0,-1,0,100)">
	<g id="xfrm4" transform="translate(173.845,128.861)">
		<path id="path15" fill="#FFFFFF" d="M-149.426-40.966c0.899,0.263,2.064,0.958,2.979,0.263c0.633-0.957,2.389-1.274,1.901-2.601    c0.915-1.115,1.917-2.39,3.082-3.234c0.265-0.06,0.368,0.101,0.486,0.261l-0.324,0.159c0.368,0.317,1.269-0.214,1.858,0.109    c0.368,0,0.898-0.109,1.164-0.481c0.266-0.426,0.324-0.957,0.693-1.38l0.206,0.107c0.28-0.479,0.384-0.905,0.693-1.332    c1.917-0.635,2.816-2.919,4.512-3.876c2.079-1.538,4.261-3.079,6.694-3.983c-0.104-0.32,0.266-0.32,0.428-0.422v-0.055    c-0.324,0.156-0.737,0.316-1.062,0.213c0.324-0.477,1.105-0.266,1.269-0.793h-0.842c0-0.164,0.207-0.164,0.311-0.215    c-0.413,0.16-0.841-0.16-1.105,0.369c-1.756,0.742-3.348,1.807-4.896,2.757l-0.044-0.049c1.224-1.169,2.92-2.017,4.306-2.812    c0.472-0.266,1.165-0.426,1.43-0.9c-0.162-0.055-0.427-0.055-0.486-0.27l-0.368,0.215c-0.104-0.055,0-0.16-0.044-0.215l0.25-0.213    c-1.799,0.742-3.818,1.859-5.455,3.188c-0.797,0.531-1.593,0.957-2.389,1.537c-0.118,0-0.266,0.052-0.324-0.103    c0.898-0.691,1.857-1.118,2.757-1.754c-1.637,0.797-3.612,1.967-4.939,3.559c-0.575,0.585-1.431,1.803-2.433,1.597    c-0.384-0.214-0.959-0.165-1.387-0.375c-0.324,0-0.59,0.375-0.898,0.104c-0.266-0.583-1.121-0.104-1.283-0.74    c-0.517-0.214-1.49-0.055-1.637-0.692l0.044-0.264c-1.062-0.482-2.491-0.317-3.229-1.332c-0.221-0.207-0.649,0.052-0.855-0.207    c0.059,0.104-0.059,0.207-0.162,0.207c-0.266,0.109-0.428-0.155-0.634-0.207c-0.163,0.258,0.206,0.316,0.162,0.475    c-0.487,0.212-0.693-0.423-1.062-0.637c0.044,0.42,0.531,0.478,0.679,0.85c-0.266,0.159-0.472-0.109-0.679-0.158    c0.104,0.049,0.31,0.423,0,0.423c0.266,0.426,0.841,0.269,1.003,0.743h-0.428c0.428,0.317,0.914,0.694,1.283,1.01    c-0.162,0-0.486,0.424-0.752,0.05c0,0.055,0.118,0.109,0.059,0.158c-0.207,0.217-0.486-0.158-0.752-0.158    c0-0.05,0.059,0.158-0.103,0.212h-0.163c0.163,0.109,0.384,0.372,0.59,0.537l-0.103,0.104c0.796,0.478,1.592,1.007,2.389,1.378    l0.162,0.162c-0.221,0.264-0.634,0.264-0.855,0c0.693,0.052,0.059,0.795,0.737,0.901c0.118,0.588,0.648,1.012,1.076,1.272    c-0.692,0.64-0.958,1.807-1.755,2.181c-0.059,0.478-0.531,0-0.589,0.478c-0.958,0.055-2.064-0.426-2.699,0.423    c-0.486,0.162-1.121,0.106-1.592,0.055c-0.428-0.375-0.59-0.904-0.855-1.33c-0.428-0.314-0.634-0.844-0.958-1.324    c-0.472-0.637-1.062-1.435-1.917-1.697v0.101c-0.575-0.795-1.858-0.478-2.595-1.327l-0.059,0.214    c-0.265,0.054-0.472-0.108-0.531-0.317v-0.106c-0.369,0.106-0.634-0.32-0.796-0.534c-0.899-0.95-2.389-0.95-3.333-1.748    c-0.118-0.06,0.044,0,0,0.049c-1.77-0.372-2.61-1.697-3.79-2.973c-0.31-0.529-0.84-0.849-1.268-1.271    c0.103-0.43-0.531-0.588-0.737-0.801c0.207,0.371,0.693,0.693,0.737,1.113c-0.428-0.213-0.531-0.688-1.002-0.9    c-0.266,0.213,0.265,0.373,0.103,0.588l-0.634-0.484l0.575,0.797c-0.31-0.051-0.634-0.584-1.002-0.637    c-0.104-0.16-0.266-0.16-0.472-0.16v0.055c0.207,0.158,0.575,0.529,0.899,0.852c-0.383,0.215-0.796-0.268-1.076-0.217    c-0.103,0.057-0.044,0.324-0.31,0.217c0.265,0.215,0.531,0.369,0.649,0.686c-0.221,0.058-0.487-0.103-0.708-0.208    c0.059,0.266,0.59,0.426,0.428,0.85c-0.678,0.107-0.575-0.584-1.165-0.744c0.59,0.8,1.445,1.275,2.02,2.127l-0.059,0.052    c1.121,1.221,2.506,1.961,3.878,2.759c1.121,0.64,2.595,0.957,3.406,2.019c0.31,0.426,0.634,0.798,0.84,1.221    c0.163-0.055,0.221,0.111,0.266,0.214c0.796,0.475,1.651,0.795,2.61,0.795c0.428,0.429,1.224,0.161,1.534,0.743    c1.121,1.33,1.548,2.976,2.506,4.303c0.31,0.426,0.678,1.111,1.327,1.275C-152.449-40.28-150.915-40.543-149.426-40.966"/>
	</g>
</g>
<g id="q5" transform="matrix(1,0,0,-1,0,100)">
	<g id="xfrm6" transform="translate(181.878,124.574)">
		<path id="path19" fill="#FFFFFF" d="M-145.614-43l-0.221,0.689l0.221-0.585V-43z"/>
	</g>
</g>
<g id="q7" transform="matrix(1,0,0,-1,0,100)">
	<g id="xfrm8" transform="translate(182.131,123.854)">
		<path id="path23" fill="#FFFFFF" d="M-145.494-43.342c-0.221,0.052-0.162,0.218-0.266,0.375    C-145.656-43.021-145.553-43.178-145.494-43.342"/>
	</g>
</g>
<g id="q9" transform="matrix(1,0,0,-1,0,100)">
	<g id="xfrm10" transform="translate(164.95,123.606)">
		<path id="path27" fill="#8E7328" d="M-153.646-43.46c-0.162,0.317,0.266,0.417,0.428,0.686    C-153.278-43.042-153.44-43.306-153.646-43.46"/>
	</g>
</g>
<g id="q11" transform="matrix(1,0,0,-1,0,100)">
	<g id="xfrm12" transform="translate(168.406,123.531)">
		<path id="path31" fill="#8E7328" d="M-152.007-43.495v0.051h0.163L-152.007-43.495z"/>
	</g>
</g>
<g id="q13" transform="matrix(1,0,0,-1,0,100)">
	<g id="xfrm14" transform="translate(167.653,123.316)">
		<path id="path35" fill="#8E7328" d="M-152.364-43.597c-0.103-0.112-0.162-0.269-0.324-0.214    C-152.688-43.654-152.467-43.494-152.364-43.597"/>
	</g>
</g>
<g id="q15" transform="matrix(1,0,0,-1,0,100)">
	<g id="xfrm16" transform="translate(174.566,122.703)">
		<path id="path39" fill="#FFFFFF" d="M-149.084-43.888c-0.265-0.213-0.796-0.374-0.855-0.691c-0.472,0.052-0.796-0.423-1.165-0.423    c0.044,0.423,0.693,0.159,0.737,0.585l0.428,0.316l0.059-0.161c0.162,0.161,0.693,0.057,0.531,0.478L-149.084-43.888z"/>
	</g>
</g>
<g id="q17" transform="matrix(1,0,0,-1,0,100)">
	<g id="xfrm18" transform="translate(173.414,122.488)">
		<path id="path43" fill="#FFFFFF" d="M-149.63-43.99c-0.103-0.214-0.324-0.375-0.589-0.429    C-150.117-44.154-149.895-44.154-149.63-43.99"/>
	</g>
</g>
<g id="q19" transform="matrix(1,0,0,-1,0,100)">
	<g id="xfrm20" transform="translate(165.996,122.055)">
		<path id="path47" fill="#8E7328" d="M-153.15-44.195c0.103-0.158-0.104,0-0.162-0.109    C-153.253-44.25-153.209-44.195-153.15-44.195"/>
	</g>
</g>
<path id="path49" fill="#FFFFFF" d="M24.95,22.563H24.79v-0.158h0.161V22.563z"/>
<g id="q21" transform="matrix(1,0,0,-1,0,100)">
	<g id="xfrm22" transform="translate(173.955,121.625)">
		<path id="path53" fill="#FFFFFF" d="M-149.373-44.399c0-0.109-0.103-0.109-0.162-0.218h-0.162    c-0.044,0.161,0.103,0.218,0.221,0.264C-149.433-44.354-149.433-44.399-149.373-44.399"/>
	</g>
</g>
<g id="q23" transform="matrix(1,0,0,-1,0,100)">
	<g id="xfrm24" transform="translate(174.641,120.936)">
		<path id="path57" fill="#FFFFFF" d="M-149.048-44.726c-0.059-0.211-0.325-0.211-0.428-0.263c-0.162,0.052,0.044,0.105,0.044,0.217    C-149.269-44.83-149.21-44.672-149.048-44.726"/>
	</g>
</g>
<g id="q25" transform="matrix(1,0,0,-1,0,100)">
	<g id="xfrm26" transform="translate(174.711,120.721)">
		<path id="path61" fill="#8E7328" d="M-149.015-44.828c-0.059-0.215-0.428-0.215-0.649-0.369c-0.044,0.211,0.28,0.317,0.428,0.423    C-149.177-44.828-149.015-44.774-149.015-44.828"/>
	</g>
</g>
<g id="q27" transform="matrix(1,0,0,-1,0,100)">
	<g id="xfrm28" transform="translate(183.355,120.363)">
		<path id="path65" fill="#8E7328" d="M-144.914-44.998c0.207-0.106,0.311-0.375,0.473-0.529l-0.162-0.162    c-0.369,0.369-0.576,0.743-0.797,1.218C-145.238-44.63-145.134-44.895-144.914-44.998"/>
	</g>
</g>
<g id="q29" transform="matrix(1,0,0,-1,0,100)">
	<g id="xfrm30" transform="translate(188.541,118.451)">
		<path id="path69" fill="#FFFFFF" d="M-142.452-45.906c-0.163-0.107-0.384,0.109-0.531,0.162L-142.452-45.906z"/>
	</g>
</g>
<g id="q31" transform="matrix(1,0,0,-1,0,100)">
	<g id="xfrm32" transform="translate(189.551,117.91)">
		<path id="path73" fill="#FFFFFF" d="M-141.973-46.162c-0.428,0.271-1.018,0.271-1.327,0.584    C-142.828-45.627-142.342-45.89-141.973-46.162"/>
	</g>
</g>
<g id="q33" transform="matrix(1,0,0,-1,0,100)">
	<g id="xfrm34" transform="translate(186.38,117.947)">
		<path id="path77" fill="#FFFFFF" d="M-143.478-46.144l-0.648,0.48l0.428-0.213L-143.478-46.144z"/>
	</g>
</g>
<g id="q35" transform="matrix(1,0,0,-1,0,100)">
	<g id="xfrm36" transform="translate(189.44,116.869)">
		<path id="path81" fill="#FFFFFF" d="M-142.026-46.656l0.045,0.104l0.162-0.104H-142.026z"/>
	</g>
</g>
<g id="q37" transform="matrix(1,0,0,-1,0,100)">
	<g id="xfrm38" transform="translate(189.298,116.69)">
		<path id="path85" fill="#FFFFFF" d="M-142.093-46.741h-0.221v0.1C-142.255-46.686-142.152-46.686-142.093-46.741"/>
	</g>
</g>
</svg>