<?xml version="1.0" standalone="no"?>
<!DOCTYPE svg PUBLIC "-//W3C//DTD SVG 20010904//EN"
 "http://www.w3.org/TR/2001/REC-SVG-20010904/DTD/svg10.dtd">
<svg version="1.0" xmlns="http://www.w3.org/2000/svg"
 width="400.000000pt" height="400.000000pt" viewBox="0 0 400.000000 400.000000"
 preserveAspectRatio="xMidYMid meet">

<g transform="translate(0.000000,400.000000) scale(0.100000,-0.100000)"
fill="#000000" stroke="none">
<path d="M1465 3015 c-35 -11 -2 -13 260 -13 262 0 296 1 270 13 -42 19 -472
19 -530 0z"/>
<path d="M2107 3023 c-18 -18 0 -23 78 -23 71 0 83 2 79 15 -5 11 -23 15 -78
15 -40 0 -76 -3 -79 -7z"/>
<path d="M2494 2996 c-25 -25 -34 -43 -34 -67 0 -85 81 -139 154 -104 106 50
71 205 -46 205 -32 0 -47 -7 -74 -34z m127 1 c44 -33 50 -93 15 -134 -19 -22
-32 -28 -66 -28 -34 0 -47 6 -66 28 -52 60 -13 146 66 146 19 0 42 -5 51 -12z"/>
<path d="M2530 2926 c0 -30 5 -58 10 -61 6 -4 10 5 10 19 0 33 13 33 35 0 19
-30 32 -26 16 5 -9 15 -8 25 0 39 19 31 4 52 -36 52 l-35 0 0 -54z m58 21 c2
-12 -3 -17 -17 -17 -15 0 -21 6 -21 21 0 25 33 22 38 -4z"/>
<path d="M1340 2945 c-11 -13 41 -15 459 -15 412 0 471 2 471 15 0 13 -58 15
-459 15 -395 0 -460 -2 -471 -15z"/>
<path d="M1291 2877 c-6 -6 -11 -15 -11 -19 0 -4 80 -8 178 -8 149 1 186 4
232 20 l55 20 -221 -1 c-151 0 -225 -4 -233 -12z"/>
<path d="M1940 2870 c44 -15 82 -19 193 -20 127 0 138 2 135 18 -3 15 -21 17
-193 19 l-190 3 55 -20z"/>
<path d="M1267 2803 c-19 -19 5 -23 137 -23 115 0 146 3 156 15 11 13 -5 15
-137 15 -82 0 -153 -3 -156 -7z"/>
<path d="M2056 2795 c5 -12 27 -15 110 -15 86 0 104 3 104 15 0 12 -19 15
-110 15 -93 0 -109 -2 -104 -15z"/>
<path d="M1260 2726 c0 -23 23 -26 144 -19 83 4 116 10 120 20 4 10 -20 13
-129 13 -109 0 -135 -3 -135 -14z"/>
<path d="M1648 2723 c-6 -7 -9 -13 -7 -14 2 0 79 -1 172 -2 128 -2 167 1 167
11 0 6 -3 12 -7 12 -5 1 -77 2 -161 3 -113 1 -156 -1 -164 -10z"/>
<path d="M2100 2726 c0 -19 15 -23 95 -22 58 1 70 4 73 19 3 15 -6 17 -82 17
-67 0 -86 -3 -86 -14z"/>
<path d="M1260 2650 c0 -19 7 -20 130 -20 123 0 130 1 130 20 0 19 -7 20 -130
20 -123 0 -130 -1 -130 -20z"/>
<path d="M1645 2660 c-15 -25 13 -30 171 -30 157 0 164 1 164 20 0 19 -7 20
-164 20 -99 0 -167 -4 -171 -10z"/>
<path d="M2110 2650 c0 -18 6 -20 81 -20 71 0 80 2 77 18 -3 14 -16 17 -81 20
-72 3 -77 1 -77 -18z"/>
<path d="M1260 2575 c0 -13 21 -15 130 -15 109 0 130 2 130 15 0 13 -21 15
-130 15 -109 0 -130 -2 -130 -15z"/>
<path d="M1640 2575 c0 -11 12 -15 50 -15 38 0 50 4 50 15 0 11 -12 15 -50 15
-38 0 -50 -4 -50 -15z"/>
<path d="M1260 2500 c0 -20 5 -20 127 -18 112 3 128 5 131 21 3 15 -8 17 -127
17 -125 0 -131 -1 -131 -20z"/>
<path d="M1642 2503 c3 -16 20 -18 166 -20 89 -1 162 1 162 3 0 2 -13 10 -30
19 -22 11 -63 15 -165 15 -125 0 -136 -2 -133 -17z"/>
<path d="M1990 2501 c30 -16 61 -19 227 -20 106 -1 193 0 193 3 0 3 -13 12
-30 21 -23 12 -68 15 -227 15 l-198 -1 35 -18z"/>
<path d="M2420 2503 c21 -15 48 -18 180 -18 139 0 155 2 158 18 3 16 -11 17
-179 17 -177 0 -183 -1 -159 -17z"/>
<path d="M1260 2425 c0 -13 18 -15 127 -13 90 2 128 7 131 16 3 9 -27 12 -127
12 -111 0 -131 -2 -131 -15z"/>
<path d="M1642 2428 c7 -20 260 -23 296 -4 25 14 14 15 -136 16 -127 0 -163
-3 -160 -12z"/>
<path d="M1980 2425 c-11 -13 10 -15 181 -15 149 1 200 4 219 15 22 13 3 14
-181 15 -172 0 -209 -3 -219 -15z"/>
<path d="M2416 2425 c-18 -13 0 -15 162 -15 155 0 182 2 182 15 0 22 -315 22
-344 0z"/>
<path d="M1260 2355 c0 -13 21 -15 130 -15 109 0 130 2 130 15 0 13 -21 15
-130 15 -109 0 -130 -2 -130 -15z"/>
<path d="M1640 2355 c0 -11 12 -15 50 -15 38 0 50 4 50 15 0 11 -12 15 -50 15
-38 0 -50 -4 -50 -15z"/>
<path d="M2110 2355 c0 -12 16 -15 80 -15 64 0 80 3 80 15 0 12 -16 15 -80 15
-64 0 -80 -3 -80 -15z"/>
<path d="M2492 2358 c3 -9 30 -14 76 -16 60 -2 72 0 72 13 0 12 -14 15 -76 15
-56 0 -75 -3 -72 -12z"/>
<path d="M1260 2285 c0 -13 21 -15 130 -15 109 0 130 2 130 15 0 13 -21 15
-130 15 -109 0 -130 -2 -130 -15z"/>
<path d="M1647 2293 c-20 -19 8 -23 163 -23 144 0 170 2 170 15 0 13 -25 15
-163 15 -90 0 -167 -3 -170 -7z"/>
<path d="M2110 2285 c0 -12 16 -15 80 -15 64 0 80 3 80 15 0 12 -16 15 -80 15
-64 0 -80 -3 -80 -15z"/>
<path d="M2497 2293 c-18 -17 -1 -23 68 -23 60 0 75 3 75 15 0 12 -14 15 -68
15 -38 0 -72 -3 -75 -7z"/>
<path d="M1267 2223 c-4 -3 -7 -12 -7 -20 0 -10 30 -13 140 -13 77 0 140 4
140 8 0 25 -30 32 -145 32 -67 0 -125 -3 -128 -7z"/>
<path d="M1645 2219 c-15 -24 14 -29 171 -29 156 0 164 1 164 20 0 18 -8 19
-165 19 -91 0 -167 -4 -170 -10z"/>
<path d="M2091 2217 c-23 -23 -9 -27 85 -27 86 0 95 2 92 18 -3 14 -16 17 -84
19 -49 1 -86 -3 -93 -10z"/>
<path d="M2496 2223 c-2 -3 -2 -11 1 -19 4 -10 24 -14 74 -14 62 0 69 2 69 20
0 18 -6 20 -69 19 -39 -1 -72 -3 -75 -6z"/>
<path d="M1260 2135 c0 -13 27 -15 182 -15 162 0 180 2 162 15 -29 22 -344 22
-344 0z"/>
<path d="M2020 2135 c-11 -13 3 -15 119 -15 110 0 131 2 131 15 0 12 -20 15
-119 15 -93 0 -121 -3 -131 -15z"/>
<path d="M2497 2144 c-16 -16 9 -24 74 -24 55 0 69 3 69 15 0 12 -14 15 -68
15 -38 0 -72 -3 -75 -6z"/>
<path d="M1290 2065 c11 -13 78 -15 496 -15 424 0 484 2 484 15 0 13 -62 15
-496 15 -440 0 -495 -2 -484 -15z"/>
<path d="M2496 2065 c-4 -13 7 -15 69 -15 60 0 75 3 75 15 0 12 -14 15 -69 15
-52 0 -70 -4 -75 -15z"/>
<path d="M1350 2005 c0 -2 13 -11 30 -20 25 -13 93 -15 460 -15 423 0 430 0
430 20 0 20 -7 20 -460 20 -253 0 -460 -2 -460 -5z"/>
<path d="M2497 1990 c-5 -19 0 -20 69 -20 67 0 74 2 74 20 0 18 -7 20 -69 20
-60 0 -69 -2 -74 -20z"/>
<path d="M1610 1919 c49 -13 318 -14 355 -1 23 8 -22 10 -180 10 -148 0 -200
-3 -175 -9z"/>
<path d="M2095 1914 c25 -19 166 -16 173 4 3 9 -20 12 -95 12 -89 -1 -96 -2
-78 -16z"/>
<path d="M2496 1915 c5 -11 23 -15 75 -15 55 0 69 3 69 15 0 12 -15 15 -75 15
-62 0 -73 -2 -69 -15z"/>
<path d="M500 1740 c-46 -11 -105 -76 -120 -131 -16 -60 -8 -205 13 -246 43
-82 98 -103 266 -103 l111 0 0 145 0 145 -105 0 -105 0 0 -40 0 -39 58 -3 57
-3 3 -59 3 -59 -77 6 c-42 4 -84 13 -92 19 -58 49 -54 229 6 274 12 9 53 13
135 14 l117 0 0 45 0 45 -117 -1 c-65 -1 -134 -5 -153 -9z"/>
<path d="M948 1738 c-105 -28 -161 -210 -108 -351 36 -96 76 -118 227 -125
l113 -5 0 47 0 46 -100 0 c-94 0 -103 2 -125 25 -17 16 -25 35 -25 60 l0 35
125 0 125 0 0 40 0 40 -125 0 -125 0 0 30 c0 19 9 40 25 55 22 23 32 25 109
25 109 0 116 3 116 51 l0 39 -97 -1 c-54 -1 -115 -6 -135 -11z"/>
<path d="M1355 1732 c-69 -24 -101 -72 -115 -172 -13 -91 0 -168 35 -222 38
-57 73 -70 202 -76 l113 -5 0 47 0 46 -94 0 c-52 0 -102 3 -111 6 -20 8 -45
56 -45 89 l0 25 125 0 125 0 0 40 0 40 -125 0 c-119 0 -125 1 -125 20 0 30 27
78 47 84 10 3 60 6 111 8 l92 2 0 43 0 43 -92 0 c-61 -1 -110 -7 -143 -18z"/>
<path d="M1777 1738 c-83 -22 -127 -106 -127 -243 0 -67 4 -90 26 -133 40 -80
71 -94 212 -96 l117 -1 3 43 3 42 -104 0 c-97 0 -105 2 -126 24 -13 14 -24 38
-24 58 l-2 33 128 3 127 3 0 39 0 40 -131 0 -131 0 7 33 c13 60 34 71 148 77
l102 5 3 43 3 42 -98 -1 c-54 -1 -115 -6 -136 -11z"/>
<path d="M2044 1736 c-3 -8 -4 -27 -2 -43 3 -27 5 -28 73 -33 l70 -5 0 -195 0
-195 48 -3 47 -3 0 200 0 201 70 0 70 0 0 45 0 45 -185 0 c-151 0 -187 -3
-191 -14z"/>
<path d="M2570 1738 c-83 -23 -130 -110 -130 -238 0 -132 51 -211 149 -230 30
-5 89 -10 132 -10 l79 0 0 45 0 45 -103 0 c-95 0 -105 2 -125 23 -12 12 -23
38 -24 57 l-3 35 128 3 127 3 0 39 0 40 -130 0 c-83 0 -130 4 -130 10 0 20 28
78 41 86 8 5 59 11 114 14 l100 5 3 43 3 42 -98 -1 c-54 0 -114 -5 -133 -11z"/>
<path d="M2977 1736 c-76 -28 -112 -87 -123 -202 -7 -79 6 -141 42 -196 37
-57 72 -70 201 -76 l113 -5 0 47 0 46 -100 0 c-92 0 -103 2 -124 23 -43 43
-46 179 -5 246 25 41 54 51 150 51 l79 0 0 40 0 40 -97 0 c-56 -1 -114 -7
-136 -14z"/>
<path d="M3280 1505 l0 -245 45 0 45 0 0 105 0 105 85 0 85 0 0 -105 0 -105
45 0 45 0 0 245 0 245 -45 0 -45 0 0 -100 0 -100 -85 0 -85 0 0 100 0 100 -45
0 -45 0 0 -245z"/>
</g>
</svg>
