<?xml version="1.0" encoding="UTF-8"?>
<svg xmlns="http://www.w3.org/2000/svg" viewBox="0 0 80.49 80.68">
  <g fill="#4bbbbe">
    <path d="m64.33 8.08a37.77 37.77 0 0 0 -12.8-6.47l-.38-.11-.95-.26a38.6 38.6 0 0 0 -13.69-1c-.58.05-1.17.13-1.75.22a40.31 40.31 0 0 0 -30.17 21.24c-.29.56-.58 1.12-.86 1.7l-.4.9-.33.7c0 .11-.09.22-.14.33s-2.95 5.75-2.86 14.89v.13a40.29 40.29 0 0 0 3.31 16c.08.19.14.37.22.55a30.59 30.59 0 0 0 4.47 7.5 40.57 40.57 0 0 0 12 10.77c.89.52 1.8 1 2.73 1.47 1.19.37 3.36.56 4.11-2.57v-32.75s-.44-8.13 5.75-11.86a11.46 11.46 0 0 1 2.41-1.32 13.39 13.39 0 0 1 16.29 4.61s.27.57.54.5c.09 0 .18-.13.26-.37a16.71 16.71 0 0 1 9.79-8.48 18.31 18.31 0 0 1 13.86 1.52 18.79 18.79 0 0 1 2.17 1.56l.38.35s.18.24.33.09c-.03 0-3.86-12.56-14.29-19.84z"/>
    <path d="m80.41 38.76c-1.15-10.21-11-11.64-11-11.64a13.93 13.93 0 0 0 -10.87 3c-3.54 2.46-4.54 6.49-4.76 8.8a12.54 12.54 0 0 0 -.09 1.76c.08 4.09-2.86 8-2.86 8a14.09 14.09 0 0 1 -8.13 4.92 10.23 10.23 0 0 1 -2.62.2 13.18 13.18 0 0 1 -9.43-4c-.16-.18-.22 0-.22 0l.11 23.4a9 9 0 0 1 -2 5.35c-.22.16-.25.27-.2.36s.51.22.51.22a39.42 39.42 0 0 0 11.3 1.59h.48.6c.77 0 1.51-.07 2.23-.13a40.11 40.11 0 0 0 7.32-1.23c.81-.21 1.56-.43 2.22-.64l1.15-.39h.11c.79-.29 1.39-.54 1.78-.71h.08l.34-.16h.12a42.29 42.29 0 0 0 22-24.19 37.45 37.45 0 0 0 1.83-14.51z"/>
  </g>
</svg>