<svg xmlns="http://www.w3.org/2000/svg" viewBox="0 0 842.48 144.56"><defs><style>.cls-1{fill:#030202;}</style></defs><title>prusament-v1</title><g id="Layer_2" data-name="Layer 2"><g id="Layer_1-2" data-name="Layer 1"><path class="cls-1" d="M404.59,46.32h-.24a130.44,130.44,0,0,1-3.48,14.4l-7,23.4h20.88L408,60.84A97.36,97.36,0,0,1,404.59,46.32Z"/><path class="cls-1" d="M142.63,42.36h-9.84v26.4h9.6c7.44,0,14.64-3.24,14.64-13.32C157,44.52,148.15,42.36,142.63,42.36Z"/><path class="cls-1" d="M61.15,43.2H51.07v28H61c8.52,0,13.32-4.68,13.32-14.16C74.35,47.16,69.55,43.2,61.15,43.2Z"/><path class="cls-1" d="M0,0V144.56H842.48V0ZM58.87,88.56h-7.8v29.52H26.71V26.28H61c21,0,37,8.4,37,30.36C98,80.52,80.35,88.56,58.87,88.56Zm101,29.52L143.47,85.32H132.79v32.76H108.43V26.28h37.32c5.52,0,12.6.48,18.84,3,9.36,3.72,17.16,10.8,17.16,24.6,0,13.08-8,21.24-16.8,25.2v.24l20.76,38.76ZM271,85.2c0,23.28-15.6,34.8-39,34.8s-38.64-11.52-38.64-34.8V26.28h24.36l-.12,54c0,5.52.12,11.88,2.88,15.6s6.72,5.16,11.76,5.16c5.52,0,9.6-1.56,12.36-5.16S247,85.8,247,80.28v-54h24ZM318.67,120c-23.52,0-37-8.76-37.92-28.44h25.32c.72,7,5.52,11.16,13.2,11.16,8.16,0,12.84-4.2,12.84-9.6s-3-8-11.64-9.6l-14.16-2.76c-12-2.4-23.16-10.44-23.16-26.4,0-16.92,12.48-29.4,36.12-29.4,25.68,0,35.16,11.52,35.63,26.4H330.07c-.24-4.56-3.72-9.12-10.92-9.12-6.36,0-10.8,3.12-10.8,8.4,0,4.92,2.64,7.8,10.44,9.24l14.4,2.64C348.67,65.4,357.43,74.16,357.43,88,357.43,109.2,342.91,120,318.67,120Zm106.92-1.92-5.28-16.56H388.39L383,118.08H360.07l31.8-91.8h26.88l32.16,91.8Zm136.55,0H538.26V50h-.36S535.51,60.48,532,72.12l-13.91,46H501.19l-14.4-46a211.06,211.06,0,0,1-5.64-22h-.36v67.92h-21.6V26.28h34.92l13,40.56a112.93,112.93,0,0,1,3.6,14.4H511s1.32-7.08,3.6-14.52l12.59-40.44h34.92Zm77.41,0H576.79V26.28h61.43V44H601.15v19.8H637V81.12H601.15v19.44h38.4Zm92.27,0H707.59L682.75,76.92a99.67,99.67,0,0,1-8.28-16.68h-.36v57.84h-21.6V26.28h25.8L702,66a88.84,88.84,0,0,1,7.68,16.08H710V26.28h21.84Zm84-73.2h-24.6v73.2H766.87V44.88h-24.6V26.28h73.55Z"/></g></g></svg>