<?xml version="1.0" standalone="no"?>
<!DOCTYPE svg PUBLIC "-//W3C//DTD SVG 20010904//EN"
 "http://www.w3.org/TR/2001/REC-SVG-20010904/DTD/svg10.dtd">
<svg version="1.0" xmlns="http://www.w3.org/2000/svg"
 width="240.000000pt" height="240.000000pt" viewBox="0 0 240.000000 240.000000"
 preserveAspectRatio="xMidYMid meet">

<g transform="translate(0.000000,240.000000) scale(0.100000,-0.100000)"
fill="#000000" stroke="none">
<path d="M272 1374 c-20 -14 -22 -24 -22 -98 0 -65 4 -87 16 -97 12 -10 56
-16 138 -19 l121 -5 3 -62 c4 -82 -3 -86 -159 -81 -118 3 -119 3 -119 -19 0
-23 2 -23 138 -23 181 0 182 0 182 119 0 70 -3 91 -17 102 -11 10 -56 16 -137
19 l-121 5 -3 57 c-4 76 5 80 158 76 119 -3 120 -3 120 20 0 22 -2 22 -138 22
-108 0 -142 -3 -160 -16z"/>
<path d="M660 1196 c0 -240 -10 -226 160 -226 170 0 160 -14 160 226 0 187 -1
194 -20 194 -19 0 -20 -7 -20 -178 0 -125 -4 -182 -12 -190 -15 -15 -181 -16
-209 -2 -18 10 -19 23 -19 190 0 173 -1 180 -20 180 -19 0 -20 -7 -20 -194z"/>
<path d="M1090 1370 c-19 -19 -20 -33 -20 -210 0 -183 1 -190 20 -190 19 0 20
7 20 174 0 213 -4 206 116 206 131 0 124 11 124 -200 l0 -180 26 0 25 0 -3
191 c-4 240 4 229 -169 229 -106 0 -121 -2 -139 -20z"/>
<path d="M1480 1200 c0 -241 -8 -230 155 -230 108 0 115 1 115 20 0 19 -7 20
-96 20 -142 0 -134 -12 -134 200 0 173 -1 180 -20 180 -19 0 -20 -7 -20 -190z"/>
<path d="M1830 1200 c0 -243 -9 -230 165 -230 174 0 165 -13 165 230 0 183 -1
190 -20 190 -19 0 -20 -7 -20 -174 0 -145 -3 -177 -16 -190 -12 -12 -37 -16
-107 -16 -51 0 -98 4 -105 9 -11 6 -13 48 -12 190 l1 181 -26 0 -25 0 0 -190z"/>
</g>
</svg>
